<svg xmlns="http://www.w3.org/2000/svg" viewBox="0 0 1700 800" width="1700" height="800" role="img" aria-label="Per-transfer and cumulative denominators after one oocyte retrieval">
<defs><marker id="ah" viewBox="0 0 10 10" refX="8.5" refY="5" markerWidth="6.5" markerHeight="6.5" orient="auto-start-reverse"><path d="M 0 0 L 10 5 L 0 10 z" fill="#37505b"/></marker></defs>
<rect width="1700" height="800" fill="#ffffff"/>
<rect x="50" y="250" width="352" height="300" rx="20" fill="#f7fafa" stroke="#9fb9bd" stroke-width="2.4"/>
<text x="226" y="300" font-family="Inter, 'Helvetica Neue', Helvetica, Arial, sans-serif" font-size="25" font-weight="600" text-anchor="middle" fill="#22323a">One oocyte retrieval</text>
<circle cx="122" cy="386" r="35" fill="#cfe3e2" stroke="#37505b" stroke-width="2.2"/><circle cx="122" cy="386" r="30.0" fill="#ffffff" stroke="#4f8f8f" stroke-width="1.7" stroke-dasharray="5.2 3.5"/><ellipse cx="110.8" cy="376.2" rx="14.0" ry="11.2" fill="#4f8f8f" stroke="#37505b" stroke-width="1.4"/>
<circle cx="122" cy="478" r="35" fill="#cfe3e2" stroke="#37505b" stroke-width="2.2"/><circle cx="122" cy="478" r="30.0" fill="#ffffff" stroke="#4f8f8f" stroke-width="1.7" stroke-dasharray="5.2 3.5"/><ellipse cx="110.8" cy="468.2" rx="14.0" ry="11.2" fill="#4f8f8f" stroke="#37505b" stroke-width="1.4"/>
<circle cx="226" cy="386" r="35" fill="#cfe3e2" stroke="#37505b" stroke-width="2.2"/><circle cx="226" cy="386" r="30.0" fill="#ffffff" stroke="#4f8f8f" stroke-width="1.7" stroke-dasharray="5.2 3.5"/><ellipse cx="214.8" cy="376.2" rx="14.0" ry="11.2" fill="#4f8f8f" stroke="#37505b" stroke-width="1.4"/>
<circle cx="226" cy="478" r="35" fill="#cfe3e2" stroke="#37505b" stroke-width="2.2"/><circle cx="226" cy="478" r="30.0" fill="#ffffff" stroke="#4f8f8f" stroke-width="1.7" stroke-dasharray="5.2 3.5"/><ellipse cx="214.8" cy="468.2" rx="14.0" ry="11.2" fill="#4f8f8f" stroke="#37505b" stroke-width="1.4"/>
<circle cx="330" cy="386" r="35" fill="#cfe3e2" stroke="#37505b" stroke-width="2.2"/><circle cx="330" cy="386" r="30.0" fill="#ffffff" stroke="#4f8f8f" stroke-width="1.7" stroke-dasharray="5.2 3.5"/><ellipse cx="318.8" cy="376.2" rx="14.0" ry="11.2" fill="#4f8f8f" stroke="#37505b" stroke-width="1.4"/>
<circle cx="330" cy="478" r="35" fill="#cfe3e2" stroke="#37505b" stroke-width="2.2"/><circle cx="330" cy="478" r="30.0" fill="#ffffff" stroke="#4f8f8f" stroke-width="1.7" stroke-dasharray="5.2 3.5"/><ellipse cx="318.8" cy="468.2" rx="14.0" ry="11.2" fill="#4f8f8f" stroke="#37505b" stroke-width="1.4"/>
<path d="M 402,400 L 452,400" stroke="#37505b" stroke-width="4.2" stroke-linecap="round"/>
<path d="M 452,140 L 452,660" stroke="#37505b" stroke-width="4.2" stroke-linecap="round"/>
<path d="M 452,140 L 508,140" stroke="#37505b" stroke-width="4.2" fill="none" stroke-linecap="round" marker-end="url(#ah)"/>
<path d="M 452,400 L 508,400" stroke="#37505b" stroke-width="4.2" fill="none" stroke-linecap="round" marker-end="url(#ah)"/>
<path d="M 452,660 L 508,660" stroke="#37505b" stroke-width="4.2" fill="none" stroke-linecap="round" marker-end="url(#ah)"/>
<rect x="520" y="35" width="640" height="210" rx="18" fill="#f7fafa" stroke="#9fb9bd" stroke-width="2.4"/>
<circle cx="608" cy="140" r="42" fill="#cfe3e2" stroke="#37505b" stroke-width="2.2"/><circle cx="608" cy="140" r="37.0" fill="#ffffff" stroke="#4f8f8f" stroke-width="1.7" stroke-dasharray="6.3 4.2"/><ellipse cx="594.6" cy="128.2" rx="16.8" ry="13.4" fill="#4f8f8f" stroke="#37505b" stroke-width="1.4"/>
<text x="700" y="149" font-family="Inter, 'Helvetica Neue', Helvetica, Arial, sans-serif" font-size="25" font-weight="600" text-anchor="start" fill="#22323a">First transfer</text>
<g transform="translate(1020,136) scale(0.6)"><path d="M -57,-58 C -92,-100 -138,-86 -150,-48" fill="none" stroke="#37505b" stroke-width="6" stroke-linecap="round"/><path d="M 57,-58 C 92,-100 138,-86 150,-48" fill="none" stroke="#37505b" stroke-width="6" stroke-linecap="round"/><path d="M -58,-52 C -64,-86 -30,-98 0,-96 C 30,-98 64,-86 58,-52 C 54,-6 40,28 26,54 C 22,67 -22,67 -26,54 C -40,28 -54,-6 -58,-52 Z" fill="#e3c9a3" stroke="#37505b" stroke-width="2.8" stroke-linejoin="round"/><path d="M -30,-56 C -24,-74 24,-74 30,-56 L 7,42 L -7,42 Z" fill="#f4e8d5" stroke="#37505b" stroke-width="2" stroke-linejoin="round"/><rect x="-16" y="50" width="32" height="56" rx="9" fill="#e3c9a3" stroke="#37505b" stroke-width="2.6"/><ellipse cx="-158" cy="-26" rx="26" ry="19" fill="#f4e8d5" stroke="#37505b" stroke-width="2.4"/><ellipse cx="158" cy="-26" rx="26" ry="19" fill="#f4e8d5" stroke="#37505b" stroke-width="2.4"/><path d="M 0,112 L 0,-16" fill="none" stroke="#5b6b73" stroke-width="4.4" stroke-linecap="round"/><path d="M 0,112 L 0,72" fill="none" stroke="#4f8f8f" stroke-width="9.5" stroke-linecap="round"/><circle cx="0" cy="-36" r="16" fill="#cfe3e2" stroke="#37505b" stroke-width="2.2"/><circle cx="0" cy="-36" r="11.0" fill="#ffffff" stroke="#4f8f8f" stroke-width="1.7" stroke-dasharray="3.0 2.2"/><ellipse cx="-5.1" cy="-40.5" rx="6.4" ry="5.1" fill="#4f8f8f" stroke="#37505b" stroke-width="1.4"/></g>
<rect x="520" y="295" width="640" height="210" rx="18" fill="#f7fafa" stroke="#9fb9bd" stroke-width="2.4"/>
<circle cx="608" cy="400" r="42" fill="#cfe3e2" stroke="#37505b" stroke-width="2.2"/><circle cx="608" cy="400" r="37.0" fill="#ffffff" stroke="#4f8f8f" stroke-width="1.7" stroke-dasharray="6.3 4.2"/><ellipse cx="594.6" cy="388.2" rx="16.8" ry="13.4" fill="#4f8f8f" stroke="#37505b" stroke-width="1.4"/>
<text x="700" y="409" font-family="Inter, 'Helvetica Neue', Helvetica, Arial, sans-serif" font-size="25" font-weight="600" text-anchor="start" fill="#22323a">Second transfer</text>
<g transform="translate(1020,396) scale(0.6)"><path d="M -57,-58 C -92,-100 -138,-86 -150,-48" fill="none" stroke="#37505b" stroke-width="6" stroke-linecap="round"/><path d="M 57,-58 C 92,-100 138,-86 150,-48" fill="none" stroke="#37505b" stroke-width="6" stroke-linecap="round"/><path d="M -58,-52 C -64,-86 -30,-98 0,-96 C 30,-98 64,-86 58,-52 C 54,-6 40,28 26,54 C 22,67 -22,67 -26,54 C -40,28 -54,-6 -58,-52 Z" fill="#e3c9a3" stroke="#37505b" stroke-width="2.8" stroke-linejoin="round"/><path d="M -30,-56 C -24,-74 24,-74 30,-56 L 7,42 L -7,42 Z" fill="#f4e8d5" stroke="#37505b" stroke-width="2" stroke-linejoin="round"/><rect x="-16" y="50" width="32" height="56" rx="9" fill="#e3c9a3" stroke="#37505b" stroke-width="2.6"/><ellipse cx="-158" cy="-26" rx="26" ry="19" fill="#f4e8d5" stroke="#37505b" stroke-width="2.4"/><ellipse cx="158" cy="-26" rx="26" ry="19" fill="#f4e8d5" stroke="#37505b" stroke-width="2.4"/><path d="M 0,112 L 0,-16" fill="none" stroke="#5b6b73" stroke-width="4.4" stroke-linecap="round"/><path d="M 0,112 L 0,72" fill="none" stroke="#4f8f8f" stroke-width="9.5" stroke-linecap="round"/><circle cx="0" cy="-36" r="16" fill="#cfe3e2" stroke="#37505b" stroke-width="2.2"/><circle cx="0" cy="-36" r="11.0" fill="#ffffff" stroke="#4f8f8f" stroke-width="1.7" stroke-dasharray="3.0 2.2"/><ellipse cx="-5.1" cy="-40.5" rx="6.4" ry="5.1" fill="#4f8f8f" stroke="#37505b" stroke-width="1.4"/></g>
<rect x="520" y="555" width="640" height="210" rx="18" fill="#f7fafa" stroke="#9fb9bd" stroke-width="2.4"/>
<circle cx="608" cy="660" r="42" fill="#cfe3e2" stroke="#37505b" stroke-width="2.2"/><circle cx="608" cy="660" r="37.0" fill="#ffffff" stroke="#4f8f8f" stroke-width="1.7" stroke-dasharray="6.3 4.2"/><ellipse cx="594.6" cy="648.2" rx="16.8" ry="13.4" fill="#4f8f8f" stroke="#37505b" stroke-width="1.4"/>
<text x="700" y="669" font-family="Inter, 'Helvetica Neue', Helvetica, Arial, sans-serif" font-size="25" font-weight="600" text-anchor="start" fill="#22323a">Third transfer</text>
<g transform="translate(1020,656) scale(0.6)"><path d="M -57,-58 C -92,-100 -138,-86 -150,-48" fill="none" stroke="#37505b" stroke-width="6" stroke-linecap="round"/><path d="M 57,-58 C 92,-100 138,-86 150,-48" fill="none" stroke="#37505b" stroke-width="6" stroke-linecap="round"/><path d="M -58,-52 C -64,-86 -30,-98 0,-96 C 30,-98 64,-86 58,-52 C 54,-6 40,28 26,54 C 22,67 -22,67 -26,54 C -40,28 -54,-6 -58,-52 Z" fill="#e3c9a3" stroke="#37505b" stroke-width="2.8" stroke-linejoin="round"/><path d="M -30,-56 C -24,-74 24,-74 30,-56 L 7,42 L -7,42 Z" fill="#f4e8d5" stroke="#37505b" stroke-width="2" stroke-linejoin="round"/><rect x="-16" y="50" width="32" height="56" rx="9" fill="#e3c9a3" stroke="#37505b" stroke-width="2.6"/><ellipse cx="-158" cy="-26" rx="26" ry="19" fill="#f4e8d5" stroke="#37505b" stroke-width="2.4"/><ellipse cx="158" cy="-26" rx="26" ry="19" fill="#f4e8d5" stroke="#37505b" stroke-width="2.4"/><path d="M 0,112 L 0,-16" fill="none" stroke="#5b6b73" stroke-width="4.4" stroke-linecap="round"/><path d="M 0,112 L 0,72" fill="none" stroke="#4f8f8f" stroke-width="9.5" stroke-linecap="round"/><circle cx="0" cy="-36" r="16" fill="#cfe3e2" stroke="#37505b" stroke-width="2.2"/><circle cx="0" cy="-36" r="11.0" fill="#ffffff" stroke="#4f8f8f" stroke-width="1.7" stroke-dasharray="3.0 2.2"/><ellipse cx="-5.1" cy="-40.5" rx="6.4" ry="5.1" fill="#4f8f8f" stroke="#37505b" stroke-width="1.4"/></g>
<path d="M 840,249 L 840,287" stroke="#37505b" stroke-width="4.2" fill="none" stroke-linecap="round" marker-end="url(#ah)"/>
<path d="M 840,509 L 840,547" stroke="#37505b" stroke-width="4.2" fill="none" stroke-linecap="round" marker-end="url(#ah)"/>
<path d="M 1176,35 L 1196,35 L 1196,245 L 1176,245" fill="none" stroke="#5b6b73" stroke-width="3.4" stroke-linecap="round" stroke-linejoin="round"/>
<text x="1226" y="134" font-family="Inter, 'Helvetica Neue', Helvetica, Arial, sans-serif" font-size="25" font-weight="600" text-anchor="start" fill="#22323a">Per transfer</text>
<text x="1226" y="166" font-family="Inter, 'Helvetica Neue', Helvetica, Arial, sans-serif" font-size="25" font-weight="600" text-anchor="start" fill="#22323a">outcome</text>
<path d="M 1412,35 L 1432,35 L 1432,765 L 1412,765" fill="none" stroke="#5b6b73" stroke-width="3.4" stroke-linecap="round" stroke-linejoin="round"/>
<text x="1462" y="390" font-family="Inter, 'Helvetica Neue', Helvetica, Arial, sans-serif" font-size="25" font-weight="600" text-anchor="start" fill="#22323a">Cumulative</text>
<text x="1462" y="422" font-family="Inter, 'Helvetica Neue', Helvetica, Arial, sans-serif" font-size="25" font-weight="600" text-anchor="start" fill="#22323a">outcome</text>
</svg>